<?xml version="1.0" encoding="UTF-8" standalone="no"?>
<svg
   xmlns:dc="http://purl.org/dc/elements/1.1/"
   xmlns:cc="http://creativecommons.org/ns#"
   xmlns:rdf="http://www.w3.org/1999/02/22-rdf-syntax-ns#"
   xmlns:svg="http://www.w3.org/2000/svg"
   xmlns="http://www.w3.org/2000/svg"
   xmlns:xlink="http://www.w3.org/1999/xlink"
   xmlns:sodipodi="http://sodipodi.sourceforge.net/DTD/sodipodi-0.dtd"
   xmlns:inkscape="http://www.inkscape.org/namespaces/inkscape"
   version="1.1"
   id="Layer_1"
   x="0px"
   y="0px"
   viewBox="0 0 506 516.2"
   style="enable-background:new 0 0 506 516.2;"
   xml:space="preserve"
   sodipodi:docname="Climbing Clan Logo Final 1_Artboard 1.svg"
   inkscape:version="1.0.2 (e86c870879, 2021-01-15)"><metadata
   id="metadata2490"><rdf:RDF><cc:Work
       rdf:about=""><dc:format>image/svg+xml</dc:format><dc:type
         rdf:resource="http://purl.org/dc/dcmitype/StillImage" /><dc:title></dc:title></cc:Work></rdf:RDF></metadata><defs
   id="defs2488"><clipPath
     id="SVGID_2_"><use
       xlink:href="#SVGID_1_"
       style="overflow:visible"
       id="use2424"
       x="0"
       y="0"
       width="100%"
       height="100%" /></clipPath><polygon
     id="SVGID_1_"
     points="105.9,249.7 151.5,254.3 182.2,377.8 117.6,422.2 42.8,404.7 " /></defs><sodipodi:namedview
   pagecolor="#ffffff"
   bordercolor="#666666"
   borderopacity="1"
   objecttolerance="10"
   gridtolerance="10"
   guidetolerance="10"
   inkscape:pageopacity="0"
   inkscape:pageshadow="2"
   inkscape:window-width="1598"
   inkscape:window-height="858"
   id="namedview2486"
   showgrid="false"
   inkscape:zoom="1.3734986"
   inkscape:cx="253"
   inkscape:cy="258.10001"
   inkscape:window-x="0"
   inkscape:window-y="20"
   inkscape:window-maximized="1"
   inkscape:current-layer="Layer_1" />
<style
   type="text/css"
   id="style2417">
	.st0{fill:#FFFFFF;}
	.st1{clip-path:url(#SVGID_2_);fill:#43687B;}
	.st2{fill:#43687B;}
	.st3{fill:#D7DF23;}
	.st4{fill:none;}
	.st5{font-family:'Impact';}
	.st6{font-size:35px;}
	.st7{fill:none;stroke:#FFFFFF;stroke-width:5;stroke-linecap:round;stroke-miterlimit:10;}
</style>


<g
   id="g2483"><g
     id="g2429"><defs
       id="defs2422"><polygon
         id="polygon3469"
         points="182.2,377.8 117.6,422.2 42.8,404.7 105.9,249.7 151.5,254.3 " /></defs><clipPath
       id="clipPath3393"><use
         xlink:href="#SVGID_1_"
         style="overflow:visible"
         id="use3391"
         x="0"
         y="0"
         width="100%"
         height="100%" /></clipPath><path
       class="st1"
       d="m 167.3,364.3 c -4.6,-4.2 -9.7,-7.9 -14.7,-11.6 -1.4,-1 -1.5,-1.9 -1.4,-3.7 0.2,-2.9 1.7,-6.6 -2.3,-8.4 -0.4,-0.2 -0.6,-1.3 -0.5,-1.9 0.2,-1.6 0.7,-3.1 1.1,-4.7 0.8,-3.6 2.2,-7.2 2.1,-10.7 -0.1,-4 -0.6,-7.7 1.2,-11.5 1,-2.1 0.1,-3.8 -2,-5 -2.2,-1.2 -4.2,-2.9 -6.2,-4.5 -1.7,-1.4 -1.8,-3.1 -0.4,-4.9 2.2,-2.8 4.3,-5.6 6.5,-8.5 0.9,-2 2.5,-3.6 3.4,-5.4 -0.1,-0.2 -0.2,-0.4 -0.4,-0.7 -0.6,-1 -1.4,-1.8 -2.2,-2.7 -1.6,1.3 -3.3,2.5 -5.5,2.7 -2.1,2.5 -4.3,4.9 -6.7,7.7 -0.4,-2.5 -1,-4.9 -1.2,-7.3 -0.5,-9.2 -3.3,-17.7 -6.8,-26 -0.4,-0.9 -0.4,-2 -0.5,-3.1 -0.6,-0.9 -1.2,-1.8 -1.9,-2.7 -0.7,-0.6 -1.4,-1.1 -2.1,-1.6 -0.4,-0.3 -0.4,-0.7 -0.3,-1.1 -0.5,-0.1 -1,-0.2 -1.5,-0.2 0.1,0.2 0.1,0.4 0.2,0.6 1,6.8 1.7,13.7 2.8,20.5 0.4,2.5 1.6,4.9 2.2,7.4 0.7,2.7 1.2,5.4 1.7,8.1 -0.3,0.3 -0.4,0.3 -0.7,0.6 l -6.6,-2.7 c -0.9,-0.1 -2.4,1.4 -3.4,1.5 -1.6,0.1 -4,-1.2 -5.9,-0.7 -2.4,0.7 -3.1,2.1 -3.4,4.5 -0.4,3.2 -0.1,5.2 -0.4,8.4 -0.1,1.4 -0.3,3.5 -1.1,4 -2.4,1.5 -3.2,3.8 -3.9,6.4 -0.6,2.3 -0.7,7 -0.4,5.3 0.3,2 0.4,3.3 0.6,4.6 0.1,0 0.3,0 0.4,0 l 0.2,-2.5 c 0.1,0 0.2,0 0.3,0 0.4,3.2 0.8,6.4 1.1,9.6 0.1,0 0.3,0 0.4,0 0.2,-1.4 0.4,-2.9 0.7,-4.8 0.9,2.1 1.6,3.8 2.6,6 0,-1.5 1.4,-5.4 1.5,-5.4 1.2,1.9 2.5,3.9 3.7,5.8 l 0.5,-0.4 c -0.6,-1.3 -1.3,-2.5 -2.2,-4.4 1.6,0.9 2.2,1.9 3.2,2.4 0.1,-0.1 0.1,-0.5 -0.6,-1.9 -0.9,-1 -2.2,-3.2 -3.1,-5.9 -0.1,-0.3 -0.1,-0.6 -0.1,-0.8 0.2,-4.4 0,-8.1 -1.5,-12.3 1.8,0.6 3.7,1.2 4.6,2.6 1.6,2.1 3.1,1.6 4.8,0.8 0.6,-0.3 1.1,-0.6 1.4,-0.7 1.2,5.3 2.5,10.4 3.6,15.6 0.6,3 1.6,6 1.4,8.9 -0.1,2.2 -1.4,5 -3,6.3 -0.8,0.6 -1.7,1.1 -2.6,1.5 -3.4,1.6 -5.9,4.6 -7.2,8.2 -2.3,6.5 -6,12.1 -8.4,18.3 0,0 -1.2,2.8 0.1,4.3 -1.2,1.9 -2.4,3.9 -3.6,5.8 -0.2,0.3 -0.7,0.6 -1,0.7 -3.3,0.6 -4.4,3.2 -5.2,6.2 -0.5,1.8 -1.3,3.6 -2.3,5.2 -1.9,3.1 -3.5,6.3 -2.5,10.1 0.4,1.3 1.6,2.8 2.8,3.3 0.7,0.3 2.4,-1.2 3,-2.3 1.4,-2.8 2.4,-5.8 3.4,-8.7 0.6,-1.6 1.1,-2.9 3.1,-2.8 1,0 2.3,-0.7 3.1,-1.5 3.3,-3.2 6.4,-6.5 9.5,-9.7 3.7,-3.8 7.5,-7.6 11.1,-11.5 1,-1 1.6,-1.3 2.8,-0.4 1.5,1.2 3.2,2.2 4.9,3.1 4.9,2.5 9.9,4.8 14.9,7.1 -1.1,0.8 -2.4,1.7 -3.7,2.4 -1.9,1 -8.5,2.8 -9,4.3 -0.4,-0.1 -0.6,-0.1 -0.7,-0.2 -1.3,-1.5 -2.8,-3.3 -4.6,-2.2 -1.3,0.9 -1.8,3.2 -2.8,4.7 -0.8,1.3 -1.6,2.9 -2.7,3.5 -2.8,1.4 -4.3,3.7 -5.3,6.5 -0.9,2.6 -0.2,3.8 2.5,3.7 1,-0.1 2.1,-0.6 3,-1.1 2,-1.3 3.9,-2.7 5.8,-4.2 5.4,-4.6 11.9,-5.8 18.4,-7.2 4.2,-0.9 8.3,-2.4 12.2,-4.2 8.6,-4.2 6.8,-9.8 1.7,-14.5 z"
       clip-path="url(#SVGID_2_)"
       id="path2427" /></g><path
     class="st2"
     d="m 427.3,141.9 c -0.1,-1.4 0.1,-2.9 -0.3,-4.1 -1.2,-3.3 -2.6,-6.5 -3.9,-9.7 -0.3,-0.6 -0.5,-1.4 -1,-1.8 -2.3,-1.6 -4.6,-3 -7,-4.4 -0.4,-0.2 -1.2,-0.2 -1.4,0 -1,1.1 -2,0.8 -2.9,0.2 -1.7,-1.2 -3.2,-2.7 -4.9,-3.9 -1,-0.7 -2.5,-1.8 -3.1,-1.5 -2.1,1.1 -3.3,-0.1 -4.8,-1.1 -1.4,-0.9 -2.8,-2 -4.3,-2.4 -7,-2 -14,-1.7 -21,-0.2 -2.1,0.5 -3.9,0.7 -6.1,0 -5,-1.7 -8.4,-0.5 -11,3.4 -2.5,3.7 -2.7,8.5 -0.4,11.8 -1.2,0.9 -2.4,1.9 -3.7,2.6 -5,2.9 -10.2,5.4 -15,8.8 -3.5,2.5 -7.7,4.3 -12.3,3.4 -0.8,-0.1 -1.6,0 -2.4,0.2 -0.1,0 -0.1,0 -0.2,0 1.5,1.7 3,3.3 4.6,4.8 3.7,-1.1 7.3,-2.1 10.9,-3.2 1.2,-0.3 2.4,-0.7 3.7,-1 4.8,-1 9.2,-2.9 13.3,-5.6 2.8,-1.9 5.6,-3.9 8.5,-5.6 1.5,-1 3.2,-1.5 5.1,-0.6 0.3,0.2 0.8,0.1 1.1,-0.1 1.3,-0.9 2.5,-2 3.8,-2.8 0.5,-0.3 1.4,-0.1 2,0.1 0.2,0 0.4,0.8 0.3,1.1 -1.1,3.1 -2.4,6 -6.1,6.9 -1.1,0.3 -2.2,0.8 -3.2,1.2 -3.7,1.5 -4.7,3.9 -3.3,7.6 -0.1,0.1 -0.3,0.3 -0.4,0.5 -5.1,4.6 -10.1,9.2 -15.2,13.8 0.9,0.4 1.9,0.8 2.9,1.1 0.7,0.3 1.4,0.6 2.1,0.8 0.2,-0.2 0.4,-0.4 0.7,-0.6 2,-1.3 3.9,-2.6 5.9,-3.9 2.1,-1.4 4.2,-2.8 6.3,-4.2 1.5,-1 2.9,-0.9 4,0.7 0.5,0.7 1.2,1.2 1.7,1.9 3.7,4.5 7.5,9 11.1,13.6 1,1.3 1.8,3.3 1.6,4.9 -0.4,2.6 -1.3,5 -3.5,6.6 1.1,1 2.2,2.1 3.3,3.2 0.9,-0.5 1.7,-1.4 2.8,-2.8 1.2,-1.6 2.5,-2.1 4.5,-1.8 2.7,0.5 4,0 4.6,-1.5 0.6,-1.5 0.1,-2.7 -2.3,-4.1 -2.6,-1.6 -4.4,-3.7 -5.6,-6.4 -2.6,-5.7 -5.2,-11.4 -7.7,-17.1 -0.4,-0.9 -0.4,-2.1 -0.6,-3.1 1.1,-0.1 2.2,-0.3 3.2,-0.1 2.8,0.5 5.6,1.3 8.4,1.8 2.2,0.4 4.4,0.8 6.6,-0.3 0.6,-0.3 1.7,-0.4 2.3,-0.1 1.7,1.1 3.3,1.3 4.8,0 1.4,0.9 1.8,2.2 1.6,3.5 -0.4,2.3 -0.7,4.6 -1.5,6.7 -2.1,5.3 -3.3,10.8 -4.2,16.3 -0.6,3.7 0.4,6.9 3,9.7 1.7,1.9 3.2,4 4.6,6.2 0.8,1.2 1.2,2.6 2.1,3.7 1.9,2.4 3,5 3.5,7.9 0.2,0.9 0,1.9 -0.2,2.8 -0.8,3.1 -3,5.1 -5.7,6.6 -0.3,0.2 -0.5,0.2 -0.7,0.3 1.1,1.5 2.2,3.1 3.3,4.6 0.2,-0.1 0.4,-0.1 0.6,-0.1 0.9,0.2 1.9,0.3 2.8,0.4 -0.5,-0.5 -1.2,-0.9 -2.1,-1.1 1.7,-1.2 3.2,-1.5 4.9,-1.1 0.7,0.2 1.5,0.2 2.2,0.3 1.7,0.2 2.6,-0.8 2.8,-2.3 0.1,-0.8 0.1,-1.6 -0.1,-2.4 -1,-5.4 -2,-10.9 -3,-16.3 -0.3,-1.4 -0.5,-2.8 -1,-4 -0.7,-1.7 -1.5,-3.6 -2.8,-4.9 -4.2,-4.4 -4.3,-9.4 -2.4,-14.6 1.8,-4.9 4,-9.7 6.2,-14.4 1.5,-3.3 2.8,-6.8 6.1,-9.1 0.7,-0.5 1.2,-0.7 1.7,-0.6 0.1,-0.2 0.3,-0.5 0.4,-0.7 -1.7,-1.9 -2.4,-4.3 -3.4,-6.7 1.6,0.8 3.1,1.6 4.7,2.5 z"
     id="path2431" /><g
     id="g2439"><path
       class="st2"
       d="m 188.4,299 c 10,-0.1 19.6,-1.7 28.6,-5.7 2.6,-1.1 5.5,-1.1 8,0 28,12 56,12.1 84,0.1 4.5,-1.9 7.8,-0.2 11.6,1.2 39.5,15.4 83.6,-6.4 92.2,-45.8 7,-31.9 -12.4,-63.5 -45.6,-73.9 -4.3,-1.3 -6.8,-3.4 -8.6,-7.2 -6.9,-14.8 -17.3,-27 -31.4,-36.5 -3.7,-2.5 -9,-5.1 -11.5,1 -8.5,20.2 -23.2,31.9 -46,33 -23.3,1.1 -40.6,-9.7 -52.5,-27.9 -0.6,-0.9 -1,-2 -1.2,-3.1 -1.8,-8.4 -3.9,-4.1 -9.6,-0.2 -12.6,8.6 -22.7,19.2 -29.3,32.5 -2.1,4.1 -4.8,6.4 -9.5,7.8 -29.5,9 -49.6,36.5 -47.4,64.3 2.4,30.4 24.7,54 56,59.3 4,0.6 8.1,0.7 12.2,1.1 z"
       id="path2433" /><path
       class="st2"
       d="m 270.6,410.1 c 7.9,-0.3 19.3,0.7 30.6,-0.6 24,-2.8 41.1,-14.5 49.4,-35.9 8.3,-21.4 15.3,-43.3 22.9,-65 0.5,-1.3 1.6,-2.9 0.2,-4.2 -1.4,-1.2 -3.1,-0.2 -4.5,0.2 -17.5,5.2 -34.7,4.2 -51.5,-2.4 -3.1,-1.2 -5.7,-1 -8.7,0.1 -27.8,10.7 -55.6,10.7 -83.4,0 -2.9,-1.1 -5.6,-1.4 -8.7,-0.3 -17.7,6.4 -35.7,6.6 -53.7,1 -1.3,-0.4 -2.8,-1.5 -4,-0.6 -1.5,1.2 -0.1,2.8 0.4,4.1 7.9,21.9 15.6,43.9 23.7,65.8 8.5,22.7 30.1,36.7 57.4,37.5 8.7,0.5 17.6,0.3 29.9,0.3 z"
       id="path2435" /><circle
       class="st3"
       cx="266.5"
       cy="111.7"
       r="46.400002"
       id="circle2437" /></g><rect
     x="196.2"
     y="323.79999"
     class="st4"
     width="141.89999"
     height="80.800003"
     id="rect2441" /><text
     transform="translate(199.3433,351.4645)"
     id="text2447"><tspan
       x="0"
       y="0"
       class="st0 st5 st6"
       id="tspan2443">Climbing</tspan><tspan
       x="34.099998"
       y="41"
       class="st0 st5 st6"
       id="tspan2445">Clan</tspan></text><line
     class="st7"
     x1="166"
     y1="210.60001"
     x2="176.60001"
     y2="221.2"
     id="line2449" /><line
     class="st7"
     x1="348.5"
     y1="232.5"
     x2="359.10001"
     y2="243.10001"
     id="line2451" /><line
     class="st7"
     x1="216.89999"
     y1="190.89999"
     x2="226.60001"
     y2="202.39999"
     id="line2453" /><line
     class="st7"
     x1="350.60001"
     y1="192.60001"
     x2="360.29999"
     y2="204"
     id="line2455" /><line
     class="st7"
     x1="201.7"
     y1="242.10001"
     x2="202.3"
     y2="227.10001"
     id="line2457" /><line
     class="st7"
     x1="310.39999"
     y1="266.60001"
     x2="311"
     y2="251.60001"
     id="line2459" /><line
     class="st7"
     x1="335.29999"
     y1="271.5"
     x2="350.29999"
     y2="271.5"
     id="line2461" /><line
     class="st7"
     x1="195.89999"
     y1="184.60001"
     x2="196.60001"
     y2="169.7"
     id="line2463" /><line
     class="st7"
     x1="247.7"
     y1="186.89999"
     x2="262"
     y2="182.3"
     id="line2465" /><line
     class="st7"
     x1="241.5"
     y1="266.20001"
     x2="252.10001"
     y2="276.79999"
     id="line2467" /><line
     class="st7"
     x1="162.3"
     y1="248.89999"
     x2="156.8"
     y2="262.79999"
     id="line2469" /><line
     class="st7"
     x1="286.89999"
     y1="196.10001"
     x2="296.5"
     y2="207.60001"
     id="line2471" /><line
     class="st7"
     x1="274.39999"
     y1="246.8"
     x2="285"
     y2="236.2"
     id="line2473" /><line
     class="st7"
     x1="325.89999"
     y1="174.7"
     x2="326.5"
     y2="159.7"
     id="line2475" /><line
     class="st7"
     x1="182"
     y1="273.79999"
     x2="196.2"
     y2="269.29999"
     id="line2477" /><line
     class="st7"
     x1="246.5"
     y1="235.60001"
     x2="247.10001"
     y2="220.7"
     id="line2479" /><line
     class="st7"
     x1="320.39999"
     y1="214.89999"
     x2="332"
     y2="205.39999"
     id="line2481" /></g></svg>
