<?xml version="1.0" encoding="UTF-8" standalone="no"?>
<svg
   xmlns:dc="http://purl.org/dc/elements/1.1/"
   xmlns:cc="http://creativecommons.org/ns#"
   xmlns:rdf="http://www.w3.org/1999/02/22-rdf-syntax-ns#"
   xmlns:svg="http://www.w3.org/2000/svg"
   xmlns="http://www.w3.org/2000/svg"
   xmlns:sodipodi="http://sodipodi.sourceforge.net/DTD/sodipodi-0.dtd"
   xmlns:inkscape="http://www.inkscape.org/namespaces/inkscape"
   version="1.1"
   id="svg2478"
   xml:space="preserve"
   width="2634.3333"
   height="5820.4668"
   viewBox="0 0 2634.3333 5820.4668"
   sodipodi:docname="Small Teardrop Flag Left Sleeve Artwork Template.svg"
   inkscape:version="1.0.2 (e86c870879, 2021-01-15)"><metadata
     id="metadata2484"><rdf:RDF><cc:Work
         rdf:about=""><dc:format>image/svg+xml</dc:format><dc:type
           rdf:resource="http://purl.org/dc/dcmitype/StillImage" /><dc:title></dc:title></cc:Work></rdf:RDF></metadata><defs
     id="defs2482"><clipPath
       clipPathUnits="userSpaceOnUse"
       id="clipPath2494"><path
         d="M 0,4365.354 H 1975.748 V 0 H 0 Z"
         id="path2492" /></clipPath><clipPath
       clipPathUnits="userSpaceOnUse"
       id="clipPath2554"><path
         d="m 863.928,2702.384 h 407.814 v 169.638 H 863.928 Z"
         id="path2552" /></clipPath></defs><sodipodi:namedview
     pagecolor="#ffffff"
     bordercolor="#666666"
     borderopacity="1"
     objecttolerance="10"
     gridtolerance="10"
     guidetolerance="10"
     inkscape:pageopacity="0"
     inkscape:pageshadow="2"
     inkscape:window-width="1598"
     inkscape:window-height="858"
     id="namedview2480"
     showgrid="false"
     inkscape:zoom="0.11479359"
     inkscape:cx="1317.1666"
     inkscape:cy="2910.2334"
     inkscape:window-x="0"
     inkscape:window-y="20"
     inkscape:window-maximized="1"
     inkscape:current-layer="g2486" /><g
     id="g2486"
     inkscape:groupmode="layer"
     inkscape:label="Small Teardrop Flag Left Sleeve Artwork Template"
     transform="matrix(1.3333333,0,0,-1.3333333,0,5820.4667)"><g
       id="g2488"
       style="display:inline"><g
         id="g2490"
         clip-path="url(#clipPath2494)"><g
           id="g2496"
           transform="translate(1188.9895,4308.6611)"><path
             d="M 0,0 C 45.708,-0.792 108.103,-2.228 185.614,-20.934 265.365,-40.179 323.464,-68.62 347.27,-81 c 134.002,-69.69 210.274,-165.574 243.461,-208.204 10.397,-13.355 49.259,-64.159 87.254,-138.787 28.914,-56.79 47.801,-108.667 60.37,-150.417 -31.54,-67.395 -63.079,-134.791 -94.619,-202.186 -7.453,40.75 -20.151,98.552 -42.534,166.496 -7.24,21.973 -15.538,47.691 -29.003,78.417 -20.301,46.322 -52.366,107.495 -99.587,167.521 -52.431,66.65 -113.607,119.357 -181.825,156.657 -84.675,46.295 -182.51,69.771 -290.787,69.771 -71.194,0 -134.025,-5.31 -192.079,-16.235 -63.164,-11.884 -119.393,-30.131 -171.902,-55.779 -119.496,-58.371 -218.171,-155.608 -301.662,-297.265 -48.554,-82.379 -92.242,-180.988 -129.849,-293.091 -40.765,-121.514 -75.588,-262.462 -103.499,-418.927 -29.674,-166.347 -52.42,-355.197 -67.605,-561.304 -15.952,-216.518 -24.04,-458.611 -24.04,-719.554 v -1748.268 c -47.24,0.062 -94.48,0.124 -141.72,0.187 v 1748.081 c -0.058,48.942 0.181,126.986 2.006,222.988 6.242,328.336 24.942,546.082 31.284,616.166 5.251,58.033 12.158,133.468 25.214,234.083 26.97,207.844 57.388,347.488 64.297,378.775 23.568,106.727 44.055,177.431 49.286,195.308 14.141,48.323 33.31,113.229 66.196,196.135 19.136,48.239 41.156,103.239 78.625,172.479 23.534,43.49 58.743,107.792 118.932,181.559 18.298,22.426 45.929,56.022 88.389,94.913 63.439,58.106 120.338,91.722 140.406,103.144 17.449,9.93 59.269,32.796 116.632,53.73 9.801,3.577 53.514,19.308 113.918,32.173 44.529,9.485 78.709,13.276 101.724,15.764 C -65.148,0.931 -11.379,0.197 0,0 Z"
             style="fill:none;stroke:#231f20;stroke-width:3;stroke-linecap:butt;stroke-linejoin:miter;stroke-miterlimit:4;stroke-dasharray:12;stroke-dashoffset:0;stroke-opacity:1"
             id="path2498" /></g><g
           id="g2500"
           transform="translate(257.074,257.2412)"><path
             d="m 0,0 c 505.4,1091.89 1010.8,2183.779 1516.2,3275.669 -9.167,66.087 -31.819,169.185 -94.654,279.033 -27.61,48.268 -66.834,116.407 -144.317,179.629 -63.74,52.007 -122.929,76.151 -141.651,83.36 -67.218,25.887 -122.457,30.364 -170.022,33.851 -85.903,6.296 -154.318,-3.355 -189.415,-9.724 C 718.31,3831.326 620.779,3812.552 517.895,3742.49 431.636,3683.75 384.742,3616.096 344.755,3559.023 299.873,3494.962 277.298,3444.397 238.049,3357.031 192.773,3256.252 171.558,3175.047 150.388,3098.435 122.128,2996.164 107.774,2920.877 88.66,2819.303 60.625,2670.318 47.625,2544.174 40.1,2473.642 29.957,2378.573 24.804,2306.619 20.447,2244.858 15.902,2180.44 12.652,2123.11 10.291,2074.88 9.62,2061.169 7.313,2013.475 5.109,1949.136 3.241,1894.559 0.659,1780.358 0.065,1720.408 -0.896,1623.202 -1.289,1190.601 0,0 Z"
             style="fill:none;stroke:#00a650;stroke-width:3;stroke-linecap:butt;stroke-linejoin:miter;stroke-miterlimit:10;stroke-dasharray:none;stroke-opacity:1"
             id="path2502" /></g><g
           id="g2504"
           transform="translate(1927.3445,3730.2532)"><path
             d="m 0,0 c 0,0 -147.545,578.408 -738.355,578.408 -590.812,0 -1132.356,-336.143 -1132.356,-2503.887 V -3673.56 h 170.064 z"
             style="fill:none;stroke:#3871c1;stroke-width:3;stroke-linecap:butt;stroke-linejoin:miter;stroke-miterlimit:4;stroke-dasharray:none;stroke-opacity:1"
             id="path2506" /></g><g
           id="g2508"
           transform="translate(-0.0559,-4e-4)"><path
             d="m 0,0 v 1804.774 c 0,265.79 8.269,512.789 24.577,734.135 15.684,212.876 39.286,408.545 70.152,581.571 29.617,166.02 66.868,316.478 110.719,447.195 42.001,125.194 91.469,236.47 147.029,330.736 53.004,89.93 113.403,167.514 179.518,230.597 62.099,59.251 131.404,107.767 205.991,144.201 68.704,33.561 141.417,57.272 222.294,72.49 70.29,13.226 145.12,19.656 228.766,19.656 144.568,0 276.555,-32.835 392.295,-97.594 92.521,-51.767 174.427,-123.711 243.44,-213.832 84.97,-110.954 128.819,-220.655 147.394,-276.171 l 3.573,-10.682 L 231.943,0 Z"
             style="fill:none;stroke:#231f20;stroke-width:3;stroke-linecap:butt;stroke-linejoin:miter;stroke-miterlimit:4;stroke-dasharray:none;stroke-opacity:1"
             id="path2510" /></g><g
           id="g2512"
           transform="translate(213.7752,28.3462)"><path
             d="m 0,0 h -185.487 v 1776.428 c 0,265.094 8.243,511.392 24.5,732.051 15.613,211.909 39.093,406.604 69.789,578.676 29.372,164.656 66.277,313.755 109.688,443.157 41.371,123.32 90.012,232.786 144.573,325.358 51.679,87.679 110.445,163.206 174.667,224.482 59.99,57.239 126.897,104.085 198.866,139.24 66.39,32.431 136.748,55.361 215.094,70.103 68.542,12.897 141.658,19.167 223.525,19.167 139.665,0 266.995,-31.621 378.456,-93.985 89.131,-49.871 168.122,-119.291 234.777,-206.33 83.153,-108.582 125.717,-216.228 143.016,-267.931 z"
             style="fill:none;stroke:#ec008c;stroke-width:3;stroke-linecap:butt;stroke-linejoin:miter;stroke-miterlimit:4;stroke-dasharray:none;stroke-opacity:1"
             id="path2514" /></g></g></g></g></svg>
